STARTFONT 2.1
FONT -sun-arioso-medium-r-normal--20-200-75-75-p-104-adobe-fontspecific
SIZE 20 75 75
FONTBOUNDINGBOX 26 23 -4 -4

STARTPROPERTIES 28
FOUNDRY "sun"
FAMILY_NAME "arioso"
WEIGHT_NAME "medium"
SLANT "r"
SETWIDTH_NAME "normal"
ADD_STYLE_NAME ""
PIXEL_SIZE 21
POINT_SIZE 200
RESOLUTION_X 75
RESOLUTION_Y 75
SPACING "p"
AVERAGE_WIDTH 104
CHARSET_REGISTRY "adobe"
CHARSET_ENCODING "fontspecific"
COPYRIGHT "© 1999 Sun Microsystems, Inc."
RAW_PIXELSIZE 1000
RAW_POINTSIZE 964
RAW_ASCENT 897
RAW_DESCENT 198
RAW_AVERAGE_WIDTH 4987
FACE_NAME "AriosoNormal"
_XMBDFED_INFO "Edited with xmbdfed 2.4."
WEIGHT 10
X_HEIGHT -2
QUAD_WIDTH 11
DEFAULT_CHAR 4
FONT_DESCENT 4
FONT_ASCENT 19
ENDPROPERTIES

CHARS 195

STARTCHAR char32
ENCODING 32
SWIDTH 21 0
DWIDTH 5 0
BBX 0 0 0 0
BITMAP
ENDCHAR

STARTCHAR char33
ENCODING 33
SWIDTH 30 0
DWIDTH 7 0
BBX 5 13 2 0
BITMAP
18
18
10
10
20
20
20
20
40
40
00
00
80
ENDCHAR

STARTCHAR char34
ENCODING 34
SWIDTH 30 0
DWIDTH 7 0
BBX 6 4 2 11
BITMAP
6C
24
48
48
ENDCHAR

STARTCHAR char35
ENCODING 35
SWIDTH 8 0
DWIDTH 12 0
BBX 10 15 1 0
BITMAP
1980
1100
1100
1100
FFC0
3300
3300
3300
3200
2200
FF80
2200
6600
6600
6600
ENDCHAR

STARTCHAR char36
ENCODING 36
SWIDTH 3 0
DWIDTH 11 0
BBX 10 17 0 -2
BITMAP
0100
0FC0
1140
2100
2200
3200
1A00
0C00
0700
0980
0880
0880
1080
9100
5E00
2000
2000
ENDCHAR

STARTCHAR char37
ENCODING 37
SWIDTH 25 0
DWIDTH 16 0
BBX 13 13 1 0
BITMAP
1840
6480
4480
8500
8D00
8A10
9268
9488
6488
0908
0910
1110
11E0
ENDCHAR

STARTCHAR char38
ENCODING 38
SWIDTH 43 0
DWIDTH 10 0
BBX 9 12 0 0
BITMAP
0600
0900
0900
0A00
0C00
1480
2480
4680
8300
8300
8700
7880
ENDCHAR

STARTCHAR char39
ENCODING 39
SWIDTH 17 0
DWIDTH 4 0
BBX 3 4 2 11
BITMAP
40
40
80
C0
ENDCHAR

STARTCHAR char40
ENCODING 40
SWIDTH 30 0
DWIDTH 7 0
BBX 7 18 1 -3
BITMAP
02
02
04
08
18
10
30
20
60
40
40
40
C0
80
80
80
80
80
ENDCHAR

STARTCHAR char41
ENCODING 41
SWIDTH 30 0
DWIDTH 7 0
BBX 8 18 -2 -3
BITMAP
01
01
02
02
02
02
02
02
06
04
04
0C
08
10
10
20
40
40
ENDCHAR

STARTCHAR char42
ENCODING 42
SWIDTH 30 0
DWIDTH 7 0
BBX 6 7 2 8
BITMAP
58
58
3C
E8
28
68
20
ENDCHAR

STARTCHAR char43
ENCODING 43
SWIDTH 12 0
DWIDTH 13 0
BBX 11 12 2 0
BITMAP
0400
0400
0400
0400
0400
0400
FFE0
0400
0400
0400
0400
0400
ENDCHAR

STARTCHAR char44
ENCODING 44
SWIDTH 21 0
DWIDTH 5 0
BBX 3 4 0 -3
BITMAP
60
40
40
80
ENDCHAR

STARTCHAR char45
ENCODING 45
SWIDTH 30 0
DWIDTH 7 0
BBX 6 1 0 4
BITMAP
FC
ENDCHAR

STARTCHAR char46
ENCODING 46
SWIDTH 21 0
DWIDTH 5 0
BBX 1 1 2 0
BITMAP
80
ENDCHAR

STARTCHAR char47
ENCODING 47
SWIDTH 43 0
DWIDTH 10 0
BBX 9 14 0 0
BITMAP
0080
0100
0100
0200
0400
0400
0800
0800
1000
2000
2000
4000
8000
8000
ENDCHAR

STARTCHAR char48
ENCODING 48
SWIDTH 43 0
DWIDTH 10 0
BBX 9 13 0 0
BITMAP
0200
0D80
1080
2080
2080
4080
4080
C180
C100
8300
8200
4600
7800
ENDCHAR

STARTCHAR char49
ENCODING 49
SWIDTH 43 0
DWIDTH 10 0
BBX 7 13 2 0
BITMAP
02
04
3C
48
88
18
10
10
30
20
20
60
40
ENDCHAR

STARTCHAR char50
ENCODING 50
SWIDTH 43 0
DWIDTH 10 0
BBX 10 13 -1 0
BITMAP
0380
0440
0840
1040
1040
10C0
0180
0700
0C00
1000
2000
4000
FF00
ENDCHAR

STARTCHAR char51
ENCODING 51
SWIDTH 43 0
DWIDTH 10 0
BBX 8 13 1 0
BITMAP
0E
31
01
03
02
04
1C
06
06
06
04
0C
F0
ENDCHAR

STARTCHAR char52
ENCODING 52
SWIDTH 43 0
DWIDTH 10 0
BBX 11 13 -1 0
BITMAP
0020
0040
00C0
03C0
0680
0C80
1980
2100
4300
FFC0
0200
0600
0600
ENDCHAR

STARTCHAR char53
ENCODING 53
SWIDTH 43 0
DWIDTH 10 0
BBX 10 12 0 0
BITMAP
0F80
0800
1000
1000
3E00
0100
0100
0100
0100
0200
0600
F800
ENDCHAR

STARTCHAR char54
ENCODING 54
SWIDTH 43 0
DWIDTH 10 0
BBX 8 13 1 0
BITMAP
01
02
04
08
30
3E
41
C1
81
83
82
84
F8
ENDCHAR

STARTCHAR char55
ENCODING 55
SWIDTH 43 0
DWIDTH 10 0
BBX 8 12 2 0
BITMAP
FF
81
02
04
04
08
10
30
20
40
C0
80
ENDCHAR

STARTCHAR char56
ENCODING 56
SWIDTH 43 0
DWIDTH 10 0
BBX 10 13 0 0
BITMAP
0700
08C0
1040
1040
1880
0B00
0C00
3600
4300
8100
8100
4200
7C00
ENDCHAR

STARTCHAR char57
ENCODING 57
SWIDTH 43 0
DWIDTH 10 0
BBX 8 14 1 -1
BITMAP
0C
33
21
41
41
41
43
26
3C
08
10
20
C0
80
ENDCHAR

STARTCHAR char58
ENCODING 58
SWIDTH 21 0
DWIDTH 5 0
BBX 3 7 1 0
BITMAP
20
00
00
00
00
00
80
ENDCHAR

STARTCHAR char59
ENCODING 59
SWIDTH 21 0
DWIDTH 5 0
BBX 4 11 1 -3
BITMAP
30
30
00
00
00
00
00
C0
40
80
80
ENDCHAR

STARTCHAR char60
ENCODING 60
SWIDTH 12 0
DWIDTH 13 0
BBX 11 11 1 0
BITMAP
0020
00E0
0380
1E00
7000
C000
E000
3C00
0700
01C0
0060
ENDCHAR

STARTCHAR char61
ENCODING 61
SWIDTH 12 0
DWIDTH 13 0
BBX 14 4 0 4
BITMAP
FFFC
0000
0000
FFFC
ENDCHAR

STARTCHAR char62
ENCODING 62
SWIDTH 12 0
DWIDTH 13 0
BBX 11 11 1 0
BITMAP
8000
E000
3800
0E00
0380
00E0
01C0
0700
1C00
7000
C000
ENDCHAR

STARTCHAR char63
ENCODING 63
SWIDTH 34 0
DWIDTH 8 0
BBX 7 14 2 0
BITMAP
18
26
42
46
4C
18
30
60
40
40
60
00
00
80
ENDCHAR

STARTCHAR char64
ENCODING 64
SWIDTH 3 0
DWIDTH 21 0
BBX 15 15 3 0
BITMAP
07E0
1838
300C
6394
6672
CC62
D822
D822
D866
D844
4CC8
6770
3004
1818
07E0
ENDCHAR

STARTCHAR char65
ENCODING 65
SWIDTH 38 0
DWIDTH 19 0
BBX 19 15 -1 0
BITMAP
000040
0000C0
000140
000140
0002C0
000280
000580
000780
1FF960
201300
401200
802600
804600
C18460
7E03C0
ENDCHAR

STARTCHAR char66
ENCODING 66
SWIDTH 25 0
DWIDTH 16 0
BBX 15 15 -1 0
BITMAP
01F8
0E24
1022
2062
4042
8044
80C8
80D8
8084
8082
0102
0104
0204
0CF8
1F00
ENDCHAR

STARTCHAR char67
ENCODING 67
SWIDTH 8 0
DWIDTH 12 0
BBX 12 15 0 0
BITMAP
01C0
0630
0810
1010
2210
6410
4820
D020
E040
A080
B100
8E00
8000
4030
3FC0
ENDCHAR

STARTCHAR char68
ENCODING 68
SWIDTH 33 0
DWIDTH 18 0
BBX 18 15 -1 0
BITMAP
00FC00
070B80
080880
101040
202040
402040
406040
804040
8040C0
80C080
808180
008100
010600
011C00
07E000
ENDCHAR

STARTCHAR char69
ENCODING 69
SWIDTH 8 0
DWIDTH 12 0
BBX 12 15 0 0
BITMAP
01C0
0320
0220
0220
02C0
0480
0400
0800
3000
4000
C010
8010
8020
C0C0
3F00
ENDCHAR

STARTCHAR char70
ENCODING 70
SWIDTH 33 0
DWIDTH 18 0
BBX 20 19 -1 -4
BITMAP
00FE00
071FF0
0800F0
100100
200200
200200
400600
800400
807FE0
801C00
801800
802800
402800
405800
005000
009000
012000
016000
01C000
ENDCHAR

STARTCHAR char71
ENCODING 71
SWIDTH 29 0
DWIDTH 17 0
BBX 18 19 -1 -4
BITMAP
001F00
00E180
018080
030100
020100
040600
080900
183300
10C300
130200
1C0600
700600
100C00
183440
0FC980
000E00
003000
00E000
00C000
ENDCHAR

STARTCHAR char72
ENCODING 72
SWIDTH 38 0
DWIDTH 19 0
BBX 18 15 0 0
BITMAP
0F00C0
71E340
802480
804700
804C00
00D000
00F080
01B040
072040
092040
124040
624080
C44100
884600
F07800
ENDCHAR

STARTCHAR char73
ENCODING 73
SWIDTH 12 0
DWIDTH 13 0
BBX 14 15 -1 0
BITMAP
07E0
181C
2004
2008
0008
0018
0018
0010
0030
0030
3FA0
4058
80C4
8180
7E00
ENDCHAR

STARTCHAR char74
ENCODING 74
SWIDTH 12 0
DWIDTH 13 0
BBX 14 19 -1 -4
BITMAP
007C
0388
0408
1818
1010
2010
4030
C020
8020
8060
807C
8040
83C0
0480
0880
1100
2200
2400
3800
ENDCHAR

STARTCHAR char75
ENCODING 75
SWIDTH 33 0
DWIDTH 18 0
BBX 19 15 0 0
BITMAP
07C0C0
383080
201100
003300
002600
002400
007800
007000
004000
00C000
00C000
00A000
011000
060860
F80780
ENDCHAR

STARTCHAR char76
ENCODING 76
SWIDTH 25 0
DWIDTH 16 0
BBX 16 15 0 0
BITMAP
001C
0022
0042
00C2
0082
0082
0184
0188
0110
0120
0100
0200
7C00
FBC3
F07C
ENDCHAR

STARTCHAR char77
ENCODING 77
SWIDTH 7 0
DWIDTH 22 0
BBX 23 15 -1 0
BITMAP
000304
00048C
000494
0009AC
0011C8
001158
002390
002310
004330
004720
004460
008460
010C40
830846
FC1078
ENDCHAR

STARTCHAR char78
ENCODING 78
SWIDTH 38 0
DWIDTH 19 0
BBX 20 15 -1 0
BITMAP
01C000
0623E0
081440
101840
201080
407100
406300
80A200
80A200
816600
814400
82C400
068400
058230
0703C0
ENDCHAR

STARTCHAR char79
ENCODING 79
SWIDTH 12 0
DWIDTH 13 0
BBX 12 15 0 0
BITMAP
01C0
0E20
1410
2810
2810
4810
4030
8030
8020
8060
8040
80C0
8080
4300
3C00
ENDCHAR

STARTCHAR char80
ENCODING 80
SWIDTH 38 0
DWIDTH 19 0
BBX 19 19 -1 -4
BITMAP
007E00
038980
0C1040
103040
202020
406020
404020
80C020
80C060
808040
818080
418180
010300
010C00
03F000
020000
020000
060000
040000
ENDCHAR

STARTCHAR char81
ENCODING 81
SWIDTH 8 0
DWIDTH 12 0
BBX 13 18 0 -3
BITMAP
0780
1840
3020
2020
4020
4020
C020
8060
8040
8040
8080
8180
8300
7A00
FE00
0180
00E8
0030
ENDCHAR

STARTCHAR char82
ENCODING 82
SWIDTH 29 0
DWIDTH 17 0
BBX 18 15 -1 0
BITMAP
00FC00
031300
0C2080
102080
204080
60C080
408100
808300
818600
811800
812000
83C000
826000
0231C0
040E00
ENDCHAR

STARTCHAR char83
ENCODING 83
SWIDTH 8 0
DWIDTH 12 0
BBX 11 15 0 0
BITMAP
03C0
0220
0460
0440
0600
0600
0200
0300
0100
3F80
40E0
8080
8180
8300
7C00
ENDCHAR

STARTCHAR char84
ENCODING 84
SWIDTH 20 0
DWIDTH 15 0
BBX 18 16 -1 -1
BITMAP
03FC00
1C0FC0
300200
600200
400400
800400
800C00
800800
400800
401800
2F9000
101000
202000
204000
30C000
0F0000
ENDCHAR

STARTCHAR char85
ENCODING 85
SWIDTH 33 0
DWIDTH 18 0
BBX 19 15 -1 0
BITMAP
00E060
071060
0810C0
1030C0
202180
406180
404300
80C500
808600
818A00
811600
431400
422400
02C400
0303C0
ENDCHAR

STARTCHAR char86
ENCODING 86
SWIDTH 33 0
DWIDTH 18 0
BBX 18 15 -1 0
BITMAP
003880
03C840
0C1040
102040
202040
404040
404040
808080
808080
810080
810100
410100
410200
010C00
00F000
ENDCHAR

STARTCHAR char87
ENCODING 87
SWIDTH 3 0
DWIDTH 21 0
BBX 21 15 -1 0
BITMAP
0F0010
70F208
404608
404608
008C08
009408
019808
012808
032810
035010
029010
029020
071040
061080
060F00
ENDCHAR

STARTCHAR char88
ENCODING 88
SWIDTH 38 0
DWIDTH 19 0
BBX 20 15 -1 0
BITMAP
01C070
063080
181300
201600
401C00
401800
803000
81FE20
802020
806020
01C020
014040
024080
0C4300
703E00
ENDCHAR

STARTCHAR char89
ENCODING 89
SWIDTH 33 0
DWIDTH 18 0
BBX 19 19 -1 -4
BITMAP
01C060
0E20C0
106080
206180
404380
40C300
808500
818700
810A00
831200
421600
422400
0447C0
048800
07F800
019000
032000
024000
03C000
ENDCHAR

STARTCHAR char90
ENCODING 90
SWIDTH 33 0
DWIDTH 18 0
BBX 19 15 -1 0
BITMAP
00FC00
0303C0
040040
044080
084100
084300
104600
105C00
108800
109000
132000
0EC000
010000
3FE060
F1FF80
ENDCHAR

STARTCHAR char91
ENCODING 91
SWIDTH 30 0
DWIDTH 7 0
BBX 9 19 -1 -4
BITMAP
0380
0200
0200
0600
0400
0400
0C00
0800
1800
1800
1000
3000
2000
2000
6000
4000
4000
C000
6000
ENDCHAR

STARTCHAR char92
ENCODING 92
SWIDTH 25 0
DWIDTH 6 0
BBX 6 15 0 0
BITMAP
80
C0
40
40
60
20
20
30
10
10
18
08
08
0C
04
ENDCHAR

STARTCHAR char93
ENCODING 93
SWIDTH 30 0
DWIDTH 7 0
BBX 9 19 -2 -4
BITMAP
0300
0180
0100
0100
0300
0200
0600
0400
0400
0C00
0800
0800
1800
1000
1000
3000
2000
2000
E000
ENDCHAR

STARTCHAR char94
ENCODING 94
SWIDTH 0 0
DWIDTH 0 0
BBX 4 2 1 16
BITMAP
60
50
ENDCHAR

STARTCHAR char95
ENCODING 95
SWIDTH 8 0
DWIDTH 12 0
BBX 12 1 0 -3
BITMAP
FFF0
ENDCHAR

STARTCHAR char96
ENCODING 96
SWIDTH 0 0
DWIDTH 0 0
BBX 4 4 -2 9
BITMAP
C0
60
30
10
ENDCHAR

STARTCHAR char97
ENCODING 97
SWIDTH 43 0
DWIDTH 10 0
BBX 10 8 0 0
BITMAP
1F00
2300
4200
C200
8400
8400
8C00
F780
ENDCHAR

STARTCHAR char98
ENCODING 98
SWIDTH 38 0
DWIDTH 9 0
BBX 8 14 0 0
BITMAP
0C
18
18
18
30
34
2A
6A
4A
4E
4C
86
99
E0
ENDCHAR

STARTCHAR char99
ENCODING 99
SWIDTH 30 0
DWIDTH 7 0
BBX 8 8 0 0
BITMAP
1C
24
44
48
80
80
87
F8
ENDCHAR

STARTCHAR char100
ENCODING 100
SWIDTH 38 0
DWIDTH 9 0
BBX 10 15 0 0
BITMAP
0040
00C0
0080
0080
0180
0100
0100
1F00
2200
4600
C400
8400
8C00
9800
E780
ENDCHAR

STARTCHAR char101
ENCODING 101
SWIDTH 25 0
DWIDTH 6 0
BBX 7 8 0 0
BITMAP
38
48
48
90
E0
80
86
78
ENDCHAR

STARTCHAR char102
ENCODING 102
SWIDTH 30 0
DWIDTH 7 0
BBX 8 18 -1 -4
BITMAP
03
03
05
05
05
0A
0A
0C
3C
70
D0
F0
A3
7C
60
40
C0
C0
ENDCHAR

STARTCHAR char103
ENCODING 103
SWIDTH 43 0
DWIDTH 10 0
BBX 10 12 0 -4
BITMAP
1F00
2300
4200
C200
8600
8400
84C0
FF00
0800
3800
5000
E000
ENDCHAR

STARTCHAR char104
ENCODING 104
SWIDTH 38 0
DWIDTH 9 0
BBX 8 15 0 0
BITMAP
08
08
10
10
10
20
20
6E
4A
56
E4
A4
C8
C8
87
ENDCHAR

STARTCHAR char105
ENCODING 105
SWIDTH 21 0
DWIDTH 5 0
BBX 6 12 0 0
BITMAP
30
30
00
00
20
60
40
40
C0
80
8C
F0
ENDCHAR

STARTCHAR char106
ENCODING 106
SWIDTH 25 0
DWIDTH 6 0
BBX 7 16 -1 -4
BITMAP
06
06
00
00
0C
78
C8
98
10
7E
B0
A0
A0
C0
C0
40
ENDCHAR

STARTCHAR char107
ENCODING 107
SWIDTH 38 0
DWIDTH 9 0
BBX 9 15 0 0
BITMAP
0800
0800
1800
1800
1000
3000
2000
6700
5900
5200
EC00
B000
F000
D800
CF80
ENDCHAR

STARTCHAR char108
ENCODING 108
SWIDTH 21 0
DWIDTH 5 0
BBX 5 15 0 0
BITMAP
08
08
08
10
10
10
30
20
60
60
40
C0
80
80
F0
ENDCHAR

STARTCHAR char109
ENCODING 109
SWIDTH 16 0
DWIDTH 14 0
BBX 15 8 -1 0
BITMAP
2730
6D70
5BD0
5290
E720
A520
C620
841C
ENDCHAR

STARTCHAR char110
ENCODING 110
SWIDTH 38 0
DWIDTH 9 0
BBX 8 8 0 0
BITMAP
26
6A
52
E4
A4
CC
C8
8F
ENDCHAR

STARTCHAR char111
ENCODING 111
SWIDTH 38 0
DWIDTH 9 0
BBX 8 9 0 0
BITMAP
0C
34
34
54
4C
84
87
98
60
ENDCHAR

STARTCHAR char112
ENCODING 112
SWIDTH 43 0
DWIDTH 10 0
BBX 11 13 -1 -4
BITMAP
0400
0F00
3880
4880
5080
9100
3100
EA00
BFE0
6000
4000
4000
8000
ENDCHAR

STARTCHAR char113
ENCODING 113
SWIDTH 43 0
DWIDTH 10 0
BBX 8 12 0 -4
BITMAP
1F
23
42
C2
84
84
8C
FB
0A
14
1C
10
ENDCHAR

STARTCHAR char114
ENCODING 114
SWIDTH 30 0
DWIDTH 7 0
BBX 7 8 0 0
BITMAP
2C
78
50
50
E8
A6
C0
80
ENDCHAR

STARTCHAR char115
ENCODING 115
SWIDTH 30 0
DWIDTH 7 0
BBX 7 8 0 0
BITMAP
18
28
28
30
70
90
90
FC
ENDCHAR

STARTCHAR char116
ENCODING 116
SWIDTH 21 0
DWIDTH 5 0
BBX 6 11 0 0
BITMAP
10
20
20
78
40
40
40
80
80
8C
70
ENDCHAR

STARTCHAR char117
ENCODING 117
SWIDTH 43 0
DWIDTH 10 0
BBX 10 8 0 0
BITMAP
6300
6200
4600
4400
8400
8C00
88C0
7700
ENDCHAR

STARTCHAR char118
ENCODING 118
SWIDTH 38 0
DWIDTH 9 0
BBX 9 9 0 0
BITMAP
0400
2A00
4A00
4A00
4A00
4400
8B80
9800
E000
ENDCHAR

STARTCHAR char119
ENCODING 119
SWIDTH 12 0
DWIDTH 13 0
BBX 13 9 -1 0
BITMAP
0020
1150
2350
6250
6250
4620
C458
8CC0
F700
ENDCHAR

STARTCHAR char120
ENCODING 120
SWIDTH 43 0
DWIDTH 10 0
BBX 11 8 -1 0
BITMAP
78C0
8740
0780
0700
3C00
4C00
9460
F7C0
ENDCHAR

STARTCHAR char121
ENCODING 121
SWIDTH 38 0
DWIDTH 9 0
BBX 8 12 0 -4
BITMAP
21
62
46
44
C4
8C
98
EB
1C
30
60
E0
ENDCHAR

STARTCHAR char122
ENCODING 122
SWIDTH 34 0
DWIDTH 8 0
BBX 8 8 0 0
BITMAP
3E
44
58
30
40
80
E0
9C
ENDCHAR

STARTCHAR char123
ENCODING 123
SWIDTH 30 0
DWIDTH 7 0
BBX 5 19 1 -4
BITMAP
38
70
60
60
20
20
20
60
40
80
60
60
60
60
60
60
60
70
38
ENDCHAR

STARTCHAR char124
ENCODING 124
SWIDTH 21 0
DWIDTH 5 0
BBX 2 15 2 0
BITMAP
C0
C0
C0
C0
C0
C0
C0
C0
C0
C0
C0
C0
C0
C0
C0
ENDCHAR

STARTCHAR char125
ENCODING 125
SWIDTH 30 0
DWIDTH 7 0
BBX 5 19 1 -4
BITMAP
C0
20
20
20
30
30
30
30
10
08
10
30
30
30
30
30
30
70
E0
ENDCHAR

STARTCHAR char126
ENCODING 126
SWIDTH 0 0
DWIDTH 0 0
BBX 7 2 0 16
BITMAP
72
5C
ENDCHAR

STARTCHAR char128
ENCODING 128
SWIDTH 8 0
DWIDTH 12 0
BBX 16 15 -3 0
BITMAP
0038
00C6
0102
7201
0F00
6DC0
1C20
1B80
1870
1010
1000
1000
1000
0806
07F8
ENDCHAR

STARTCHAR char130
ENCODING 130
SWIDTH 17 0
DWIDTH 4 0
BBX 3 4 0 -3
BITMAP
60
40
40
80
ENDCHAR

STARTCHAR char131
ENCODING 131
SWIDTH 0 0
DWIDTH 0 0
BBX 4 2 1 16
BITMAP
60
50
ENDCHAR

STARTCHAR char132
ENCODING 132
SWIDTH 30 0
DWIDTH 7 0
BBX 5 4 0 -3
BITMAP
48
48
90
90
ENDCHAR

STARTCHAR char133
ENCODING 133
SWIDTH 3 0
DWIDTH 21 0
BBX 16 2 2 0
BITMAP
C183
C183
ENDCHAR

STARTCHAR char134
ENCODING 134
SWIDTH 34 0
DWIDTH 8 0
BBX 9 17 0 -3
BITMAP
0400
0400
0400
0800
FF80
0800
1000
1000
3000
2000
2000
2000
4000
4000
4000
8000
8000
ENDCHAR

STARTCHAR char136
ENCODING 136
SWIDTH 0 0
DWIDTH 0 0
BBX 4 3 -1 10
BITMAP
20
60
A0
ENDCHAR

STARTCHAR char139
ENCODING 139
SWIDTH 30 0
DWIDTH 7 0
BBX 3 7 2 2
BITMAP
20
60
C0
80
E0
60
20
ENDCHAR

STARTCHAR char140
ENCODING 140
SWIDTH 3 0
DWIDTH 21 0
BBX 21 15 -1 0
BITMAP
00C070
0730C8
0A1188
141110
241120
641140
401100
C01600
803800
802008
802008
806008
80E010
41A060
3E1F80
ENDCHAR

STARTCHAR char145
ENCODING 145
SWIDTH 21 0
DWIDTH 5 0
BBX 2 4 3 11
BITMAP
40
40
80
80
ENDCHAR

STARTCHAR char146
ENCODING 146
SWIDTH 21 0
DWIDTH 5 0
BBX 3 4 3 11
BITMAP
60
40
40
80
ENDCHAR

STARTCHAR char147
ENCODING 147
SWIDTH 30 0
DWIDTH 7 0
BBX 5 4 3 11
BITMAP
48
88
90
90
ENDCHAR

STARTCHAR char148
ENCODING 148
SWIDTH 30 0
DWIDTH 7 0
BBX 6 4 3 11
BITMAP
CC
48
48
90
ENDCHAR

STARTCHAR char149
ENCODING 149
SWIDTH 30 0
DWIDTH 7 0
BBX 5 5 1 5
BITMAP
70
F8
F8
F8
70
ENDCHAR

STARTCHAR char150
ENCODING 150
SWIDTH 43 0
DWIDTH 10 0
BBX 9 1 0 4
BITMAP
FF80
ENDCHAR

STARTCHAR char151
ENCODING 151
SWIDTH 12 0
DWIDTH 13 0
BBX 14 1 0 5
BITMAP
FFFC
ENDCHAR

STARTCHAR char152
ENCODING 152
SWIDTH 0 0
DWIDTH 0 0
BBX 6 2 -2 10
BITMAP
64
98
ENDCHAR

STARTCHAR char153
ENCODING 153
SWIDTH 33 0
DWIDTH 18 0
BBX 16 8 0 5
BITMAP
FFC3
92C6
10E6
10AA
10AA
10B2
1092
79D7
ENDCHAR

STARTCHAR char155
ENCODING 155
SWIDTH 30 0
DWIDTH 7 0
BBX 3 7 2 2
BITMAP
80
C0
60
20
E0
80
80
ENDCHAR

STARTCHAR char156
ENCODING 156
SWIDTH 8 0
DWIDTH 12 0
BBX 13 8 0 0
BITMAP
1EE0
2320
4240
8280
8500
8600
9C38
E3C0
ENDCHAR

STARTCHAR char159
ENCODING 159
SWIDTH 33 0
DWIDTH 18 0
BBX 19 21 -1 -4
BITMAP
002600
002600
01C060
0E20C0
106080
206180
404380
40C300
808500
818700
810A00
831200
421600
422400
0447C0
048C00
07F800
019000
032000
024000
03C000
ENDCHAR

STARTCHAR char160
ENCODING 160
SWIDTH 21 0
DWIDTH 5 0
BBX 0 0 0 0
BITMAP
ENDCHAR

STARTCHAR char161
ENCODING 161
SWIDTH 30 0
DWIDTH 7 0
BBX 5 13 0 0
BITMAP
08
00
00
00
10
10
10
20
20
60
40
40
40
ENDCHAR

STARTCHAR char162
ENCODING 162
SWIDTH 30 0
DWIDTH 7 0
BBX 7 12 0 -2
BITMAP
04
04
1C
2C
4C
58
90
90
A6
FC
20
40
ENDCHAR

STARTCHAR char163
ENCODING 163
SWIDTH 12 0
DWIDTH 13 0
BBX 13 15 0 0
BITMAP
0060
0198
0208
0208
0400
0400
0600
1FE0
0600
0200
0200
0200
0400
F800
F7C0
ENDCHAR

STARTCHAR char164
ENCODING 164
SWIDTH 0 0
DWIDTH 0 0
BBX 4 2 2 16
BITMAP
60
40
ENDCHAR

STARTCHAR char165
ENCODING 165
SWIDTH 0 0
DWIDTH 0 0
BBX 4 2 2 16
BITMAP
B0
C0
ENDCHAR

STARTCHAR char167
ENCODING 167
SWIDTH 38 0
DWIDTH 9 0
BBX 10 19 -1 -4
BITMAP
03C0
0440
0440
0400
0600
0600
1A00
1100
2100
3100
3100
1A00
0A00
0C00
0400
0400
8800
9800
6000
ENDCHAR

STARTCHAR char168
ENCODING 168
SWIDTH 0 0
DWIDTH 0 0
BBX 5 2 -2 9
BITMAP
D8
D8
ENDCHAR

STARTCHAR char169
ENCODING 169
SWIDTH 25 0
DWIDTH 16 0
BBX 14 13 0 0
BITMAP
0FC0
1030
2008
43C8
4424
8804
8804
8804
8804
4448
2388
1030
0FC0
ENDCHAR

STARTCHAR char170
ENCODING 170
SWIDTH 0 0
DWIDTH 0 0
BBX 5 2 1 15
BITMAP
D8
D8
ENDCHAR

STARTCHAR char171
ENCODING 171
SWIDTH 34 0
DWIDTH 8 0
BBX 7 5 0 2
BITMAP
24
48
90
58
6C
ENDCHAR

STARTCHAR char172
ENCODING 172
SWIDTH 16 0
DWIDTH 14 0
BBX 13 6 0 0
BITMAP
FFF8
0008
0008
0008
0008
0008
ENDCHAR

STARTCHAR char174
ENCODING 174
SWIDTH 25 0
DWIDTH 16 0
BBX 14 13 0 0
BITMAP
07C0
1830
2F88
44C8
4444
84C4
8704
8584
84C4
4E68
2008
1030
0FC0
ENDCHAR

STARTCHAR char176
ENCODING 176
SWIDTH 21 0
DWIDTH 5 0
BBX 6 6 2 7
BITMAP
78
84
84
84
48
30
ENDCHAR

STARTCHAR char177
ENCODING 177
SWIDTH 3 0
DWIDTH 11 0
BBX 10 13 0 0
BITMAP
0400
0400
0400
0400
0400
FFC0
0400
0400
0400
0400
0400
0000
FFC0
ENDCHAR

STARTCHAR char180
ENCODING 180
SWIDTH 0 0
DWIDTH 0 0
BBX 3 4 0 9
BITMAP
60
40
80
80
ENDCHAR

STARTCHAR char182
ENCODING 182
SWIDTH 16 0
DWIDTH 14 0
BBX 9 18 2 -3
BITMAP
3F80
7100
F100
F100
F100
F100
F100
7100
1100
1100
1100
1100
1100
1100
1100
1100
1100
1100
ENDCHAR

STARTCHAR char183
ENCODING 183
SWIDTH 12 0
DWIDTH 3 0
BBX 2 2 2 5
BITMAP
C0
C0
ENDCHAR

STARTCHAR char184
ENCODING 184
SWIDTH 0 0
DWIDTH 0 0
BBX 3 5 -4 -4
BITMAP
20
60
20
40
80
ENDCHAR

STARTCHAR char186
ENCODING 186
SWIDTH 0 0
DWIDTH 0 0
BBX 7 2 0 16
BITMAP
72
5C
ENDCHAR

STARTCHAR char187
ENCODING 187
SWIDTH 34 0
DWIDTH 8 0
BBX 7 5 0 2
BITMAP
68
24
14
28
50
ENDCHAR

STARTCHAR char191
ENCODING 191
SWIDTH 34 0
DWIDTH 8 0
BBX 7 13 0 0
BITMAP
02
00
00
0C
02
06
0C
38
60
C4
84
88
70
ENDCHAR

STARTCHAR char192
ENCODING 192
SWIDTH 38 0
DWIDTH 19 0
BBX 19 18 -1 0
BITMAP
003000
000800
000000
0000C0
0000C0
000140
0001C0
0002C0
000280
000580
000780
1FF960
201300
401200
802600
804600
C18460
7E03C0
ENDCHAR

STARTCHAR char193
ENCODING 193
SWIDTH 38 0
DWIDTH 19 0
BBX 19 18 -1 0
BITMAP
000C00
000800
000000
0000C0
0000C0
000140
0001C0
0002C0
000280
000580
000780
1FF960
201300
401200
802600
804600
C18460
7E03C0
ENDCHAR

STARTCHAR char194
ENCODING 194
SWIDTH 38 0
DWIDTH 19 0
BBX 19 18 -1 0
BITMAP
000800
001400
000000
0000C0
0000C0
000140
0002C0
000280
000580
000580
0FBFC0
180900
201300
401200
802600
804600
C18460
7E03C0
ENDCHAR

STARTCHAR char195
ENCODING 195
SWIDTH 38 0
DWIDTH 19 0
BBX 19 18 -1 0
BITMAP
001900
002E00
000000
0000C0
0000C0
000140
0001C0
0002C0
000280
000580
000780
1FF960
201300
401200
802600
804600
C18460
7E03C0
ENDCHAR

STARTCHAR char196
ENCODING 196
SWIDTH 38 0
DWIDTH 19 0
BBX 21 17 -1 0
BITMAP
000198
000198
0000C0
0000C0
000140
0001C0
000280
000280
000580
000700
1FF9E0
201300
401200
802600
804600
C18430
7E03C0
ENDCHAR

STARTCHAR char197
ENCODING 197
SWIDTH 38 0
DWIDTH 19 0
BBX 20 19 -1 0
BITMAP
0000F0
000090
000090
0000F0
0000C0
0000C0
000140
0001C0
0002C0
000280
000580
000780
1FF960
201300
401200
802600
804600
C18420
7E03C0
ENDCHAR

STARTCHAR char198
ENCODING 198
SWIDTH 11 0
DWIDTH 23 0
BBX 23 16 -1 0
BITMAP
000118
000734
000964
000B44
001344
001658
001690
002C80
002D80
0FFE00
304802
405802
809002
809004
830818
7C07E0
ENDCHAR

STARTCHAR char199
ENCODING 199
SWIDTH 8 0
DWIDTH 12 0
BBX 12 19 0 -4
BITMAP
03C0
0430
1810
1010
2210
6410
5820
D020
E040
A080
B100
8E00
8000
6030
2FC0
3000
1000
2000
2000
ENDCHAR

STARTCHAR char200
ENCODING 200
SWIDTH 8 0
DWIDTH 12 0
BBX 12 18 0 0
BITMAP
0100
0080
0000
01C0
0320
0220
0220
02C0
0480
0400
0800
3000
4000
C010
8010
8020
C0C0
3F00
ENDCHAR

STARTCHAR char201
ENCODING 201
SWIDTH 8 0
DWIDTH 12 0
BBX 12 18 0 0
BITMAP
0060
0080
0000
01C0
0320
0220
0220
02C0
0480
0400
0800
3000
4000
C010
8010
8020
C0C0
3F00
ENDCHAR

STARTCHAR char202
ENCODING 202
SWIDTH 8 0
DWIDTH 12 0
BBX 12 18 0 0
BITMAP
00C0
0140
0000
01C0
0320
0220
0220
0240
0480
0400
0800
3000
4000
C010
8010
8020
C0C0
3F00
ENDCHAR

STARTCHAR char203
ENCODING 203
SWIDTH 8 0
DWIDTH 12 0
BBX 12 17 0 0
BITMAP
0360
0360
01C0
0320
0320
0220
02C0
0480
0400
0800
3000
4000
C010
8010
8020
C0C0
3F00
ENDCHAR

STARTCHAR char204
ENCODING 204
SWIDTH 12 0
DWIDTH 13 0
BBX 14 18 -1 0
BITMAP
00C0
0060
0000
07E0
181C
2004
2008
0008
0018
0018
0010
0030
0030
3FA0
4058
80C4
8180
7E00
ENDCHAR

STARTCHAR char205
ENCODING 205
SWIDTH 12 0
DWIDTH 13 0
BBX 14 18 -1 0
BITMAP
0030
0040
0000
07E0
181C
2004
2008
0008
0018
0018
0010
0030
0030
3FA0
4058
80C4
8180
7E00
ENDCHAR

STARTCHAR char206
ENCODING 206
SWIDTH 12 0
DWIDTH 13 0
BBX 14 18 -1 0
BITMAP
0060
00B0
0000
07E0
181C
2004
2008
0008
0018
0018
0010
0030
0030
3FA0
4058
80C4
C180
7E00
ENDCHAR

STARTCHAR char207
ENCODING 207
SWIDTH 12 0
DWIDTH 13 0
BBX 14 17 -1 0
BITMAP
01B0
01B0
07E0
181C
2004
2008
0018
0018
0030
0030
0030
0020
3FE0
4058
80C4
8180
7E00
ENDCHAR

STARTCHAR char209
ENCODING 209
SWIDTH 38 0
DWIDTH 19 0
BBX 20 18 -1 0
BITMAP
001980
002600
000000
01C020
0623E0
081440
101840
201080
407100
406300
80A200
80A200
816600
814400
82C400
068400
058230
0703C0
ENDCHAR

STARTCHAR char210
ENCODING 210
SWIDTH 12 0
DWIDTH 13 0
BBX 12 18 0 0
BITMAP
0180
00C0
0000
01C0
0E20
1410
2810
2810
4810
4030
8030
8020
8060
8040
80C0
8080
4300
3C00
ENDCHAR

STARTCHAR char211
ENCODING 211
SWIDTH 12 0
DWIDTH 13 0
BBX 12 18 0 0
BITMAP
0060
0080
0000
01C0
0E20
1410
2810
2810
4810
4030
8030
8020
8060
8040
80C0
8080
4300
3C00
ENDCHAR

STARTCHAR char212
ENCODING 212
SWIDTH 12 0
DWIDTH 13 0
BBX 12 18 0 0
BITMAP
00C0
0160
0000
01C0
0E20
1410
2810
2810
4810
4030
8030
8020
8060
8040
80C0
8080
4300
3C00
ENDCHAR

STARTCHAR char213
ENCODING 213
SWIDTH 12 0
DWIDTH 13 0
BBX 13 18 0 0
BITMAP
0198
0260
0000
01C0
0E20
1410
2810
2810
4810
4030
8030
8020
8060
8040
80C0
8080
4300
3C00
ENDCHAR

STARTCHAR char214
ENCODING 214
SWIDTH 12 0
DWIDTH 13 0
BBX 12 17 0 0
BITMAP
0360
0360
01C0
0E20
1410
2810
2810
4810
4030
8030
8020
8060
8040
80C0
8080
4300
3C00
ENDCHAR

STARTCHAR char216
ENCODING 216
SWIDTH 12 0
DWIDTH 13 0
BBX 13 15 -1 0
BITMAP
00E8
0710
0E28
1A28
1448
3488
2118
6218
4210
4430
4820
5060
6040
2180
5E00
ENDCHAR

STARTCHAR char217
ENCODING 217
SWIDTH 33 0
DWIDTH 18 0
BBX 19 18 -1 0
BITMAP
003000
000800
000000
01E060
061060
0810C0
1031C0
202180
406180
404300
80C500
808600
818A00
811600
431400
422400
024400
0383C0
ENDCHAR

STARTCHAR char218
ENCODING 218
SWIDTH 33 0
DWIDTH 18 0
BBX 19 18 -1 0
BITMAP
000C00
001800
000000
01E060
061060
0810C0
1031C0
202180
406180
404300
80C500
808600
818A00
811600
431400
422400
024400
0383C0
ENDCHAR

STARTCHAR char219
ENCODING 219
SWIDTH 33 0
DWIDTH 18 0
BBX 19 18 -1 0
BITMAP
001800
001400
000000
01E060
061060
0810C0
1031C0
202180
406180
404300
80C500
808600
818A00
811600
431400
422400
02C400
0303C0
ENDCHAR

STARTCHAR char220
ENCODING 220
SWIDTH 33 0
DWIDTH 18 0
BBX 19 17 -1 0
BITMAP
0004C0
0004C0
01E060
061040
0810C0
1030C0
202180
406180
404300
80C300
808600
818A00
811600
431400
422400
02C400
0303C0
ENDCHAR

STARTCHAR char223
ENCODING 223
SWIDTH 3 0
DWIDTH 11 0
BBX 12 18 -1 -3
BITMAP
00C0
0340
0240
04C0
0580
0900
0A00
1F00
1080
1040
1040
3040
3E80
E1C0
7E00
4000
4000
8000
ENDCHAR

STARTCHAR char224
ENCODING 224
SWIDTH 43 0
DWIDTH 10 0
BBX 10 13 0 0
BITMAP
1800
0800
0400
0000
0500
1B00
2300
4200
C200
8400
8400
8C00
F780
ENDCHAR

STARTCHAR char225
ENCODING 225
SWIDTH 43 0
DWIDTH 10 0
BBX 10 13 0 0
BITMAP
0300
0600
0C00
0800
0000
1F00
2300
4200
C200
8400
8400
8C00
F780
ENDCHAR

STARTCHAR char226
ENCODING 226
SWIDTH 43 0
DWIDTH 10 0
BBX 10 13 0 0
BITMAP
0400
0E00
1200
0000
0500
1B00
2300
4200
C200
8400
8400
8C00
F780
ENDCHAR

STARTCHAR char227
ENCODING 227
SWIDTH 43 0
DWIDTH 10 0
BBX 10 12 0 0
BITMAP
1D80
2600
0000
0000
1F00
2300
4200
C200
8400
8400
8C00
F780
ENDCHAR

STARTCHAR char228
ENCODING 228
SWIDTH 43 0
DWIDTH 10 0
BBX 10 11 0 0
BITMAP
1B00
1B00
0000
1F00
2300
4200
C600
8400
8400
8C00
F780
ENDCHAR

STARTCHAR char229
ENCODING 229
SWIDTH 43 0
DWIDTH 10 0
BBX 10 13 0 0
BITMAP
0F00
0900
0900
0F00
0000
1F00
2300
4200
C200
8400
8400
8C00
F780
ENDCHAR

STARTCHAR char230
ENCODING 230
SWIDTH 8 0
DWIDTH 12 0
BBX 12 8 0 0
BITMAP
1FE0
2320
4240
C6C0
8700
8600
9C30
E7E0
ENDCHAR

STARTCHAR char231
ENCODING 231
SWIDTH 30 0
DWIDTH 7 0
BBX 8 12 0 -4
BITMAP
1E
22
44
48
80
80
C7
F8
40
40
80
80
ENDCHAR

STARTCHAR char232
ENCODING 232
SWIDTH 25 0
DWIDTH 6 0
BBX 7 13 0 0
BITMAP
60
30
10
10
00
38
48
48
90
E0
80
86
78
ENDCHAR

STARTCHAR char233
ENCODING 233
SWIDTH 25 0
DWIDTH 6 0
BBX 7 13 0 0
BITMAP
0C
08
10
20
00
38
48
48
90
E0
80
86
78
ENDCHAR

STARTCHAR char234
ENCODING 234
SWIDTH 25 0
DWIDTH 6 0
BBX 7 13 0 0
BITMAP
18
28
28
00
00
38
48
48
90
E0
80
86
78
ENDCHAR

STARTCHAR char235
ENCODING 235
SWIDTH 25 0
DWIDTH 6 0
BBX 7 11 0 0
BITMAP
6C
6C
00
38
68
48
D0
E0
80
86
78
ENDCHAR

STARTCHAR char236
ENCODING 236
SWIDTH 21 0
DWIDTH 5 0
BBX 6 13 0 0
BITMAP
40
60
30
10
00
20
60
40
40
C0
80
8C
F0
ENDCHAR

STARTCHAR char237
ENCODING 237
SWIDTH 21 0
DWIDTH 5 0
BBX 6 13 0 0
BITMAP
18
10
20
20
00
20
60
40
40
C0
80
8C
F0
ENDCHAR

STARTCHAR char238
ENCODING 238
SWIDTH 21 0
DWIDTH 5 0
BBX 6 13 0 0
BITMAP
30
30
50
00
00
20
60
40
40
C0
80
8C
F0
ENDCHAR

STARTCHAR char239
ENCODING 239
SWIDTH 21 0
DWIDTH 5 0
BBX 6 11 0 0
BITMAP
58
58
00
20
60
40
40
C0
80
8C
F0
ENDCHAR

STARTCHAR char241
ENCODING 241
SWIDTH 38 0
DWIDTH 9 0
BBX 8 12 0 0
BITMAP
19
26
00
00
26
6A
52
E4
A4
CC
C8
8F
ENDCHAR

STARTCHAR char242
ENCODING 242
SWIDTH 38 0
DWIDTH 9 0
BBX 8 13 0 0
BITMAP
30
30
18
08
08
34
34
54
4C
84
8B
98
60
ENDCHAR

STARTCHAR char243
ENCODING 243
SWIDTH 38 0
DWIDTH 9 0
BBX 8 13 0 0
BITMAP
06
04
08
08
08
34
34
54
4C
84
8B
98
60
ENDCHAR

STARTCHAR char244
ENCODING 244
SWIDTH 38 0
DWIDTH 9 0
BBX 8 13 0 0
BITMAP
08
0C
14
00
08
34
34
54
4C
84
8B
98
60
ENDCHAR

STARTCHAR char245
ENCODING 245
SWIDTH 38 0
DWIDTH 9 0
BBX 8 12 0 0
BITMAP
19
2E
00
08
34
34
54
4C
84
8B
98
60
ENDCHAR

STARTCHAR char246
ENCODING 246
SWIDTH 38 0
DWIDTH 9 0
BBX 8 11 0 0
BITMAP
36
36
08
34
34
54
4C
84
8B
98
60
ENDCHAR

STARTCHAR char247
ENCODING 247
SWIDTH 3 0
DWIDTH 11 0
BBX 10 8 0 1
BITMAP
0C00
0C00
0000
FFC0
0000
0000
0C00
0C00
ENDCHAR

STARTCHAR char248
ENCODING 248
SWIDTH 38 0
DWIDTH 9 0
BBX 8 10 0 -1
BITMAP
0A
34
34
5C
9C
A4
AB
D8
E0
80
ENDCHAR

STARTCHAR char249
ENCODING 249
SWIDTH 43 0
DWIDTH 10 0
BBX 10 13 0 0
BITMAP
1800
1800
0400
0400
0000
6300
6200
4600
4400
8400
8C00
88C0
7700
ENDCHAR

STARTCHAR char250
ENCODING 250
SWIDTH 43 0
DWIDTH 10 0
BBX 10 13 0 0
BITMAP
0600
0600
0800
0800
0000
6300
6200
4600
4400
8400
8C00
88C0
7700
ENDCHAR

STARTCHAR char251
ENCODING 251
SWIDTH 43 0
DWIDTH 10 0
BBX 10 13 0 0
BITMAP
0400
0C00
1200
0000
0000
6300
6200
4600
4400
8400
8C00
88C0
7700
ENDCHAR

STARTCHAR char252
ENCODING 252
SWIDTH 43 0
DWIDTH 10 0
BBX 10 11 0 0
BITMAP
1B00
1B00
0000
6300
6200
4600
4600
8600
8400
8CC0
7700
ENDCHAR

STARTCHAR char255
ENCODING 255
SWIDTH 38 0
DWIDTH 9 0
BBX 8 15 0 -4
BITMAP
36
36
00
22
66
46
44
84
8C
98
EB
1C
30
60
E0
ENDCHAR
ENDFONT
